<svg xmlns="http://www.w3.org/2000/svg" width="400" height="300"><rect x="0" y="0" width="400" height="300" fill="#5CF57C"/><path d="M55.34 125.83L55.34 125.83L55.34 125.83Q58.72 125.90 62.33 126.17L62.33 126.17L62.33 126.17Q65.95 126.44 69.53 127.25L69.53 127.25L69.06 132.05L69.06 132.05Q66.15 131.92 62.54 131.85L62.54 131.85L62.54 131.85Q58.92 131.78 55.54 131.78L55.54 131.78L55.54 131.78Q53.17 131.78 51.48 131.92L51.48 131.92L51.48 131.92Q49.79 132.05 48.71 132.66L48.71 132.66L48.71 132.66Q47.63 133.27 47.12 134.62L47.12 134.62L47.12 134.62Q46.62 135.97 46.62 138.34L46.62 138.34L46.62 138.34Q46.62 141.92 47.97 143.38L47.97 143.38L47.97 143.38Q49.32 144.83 52.36 145.57L52.36 145.57L61.76 148.07L61.76 148.07Q67.17 149.43 69.20 152.64L69.20 152.64L69.20 152.64Q71.22 155.85 71.22 161.26L71.22 161.26L71.22 161.26Q71.22 165.31 70.31 167.81L70.31 167.81L70.31 167.81Q69.40 170.31 67.47 171.67L67.47 171.67L67.47 171.67Q65.54 173.02 62.50 173.56L62.50 173.56L62.50 173.56Q59.46 174.10 55.27 174.10L55.27 174.10L55.27 174.10Q52.97 174.10 49.19 173.90L49.19 173.90L49.19 173.90Q45.40 173.69 40.47 172.75L40.47 172.75L40.94 167.81L40.94 167.81Q44.93 167.95 47.46 168.05L47.46 168.05L47.46 168.05Q50.00 168.15 51.82 168.15L51.82 168.15L51.82 168.15Q53.65 168.15 55.47 168.15L55.47 168.15L55.47 168.15Q58.85 168.15 60.81 167.64L60.81 167.64L60.81 167.64Q62.77 167.14 63.58 165.62L63.58 165.62L63.58 165.62Q64.40 164.09 64.40 161.19L64.40 161.19L64.40 161.19Q64.40 158.69 63.82 157.27L63.82 157.27L63.82 157.27Q63.25 155.85 62.00 155.14L62.00 155.14L62.00 155.14Q60.75 154.43 58.78 153.95L58.78 153.95L49.12 151.32L49.12 151.32Q44.05 149.90 41.95 146.72L41.95 146.72L41.95 146.72Q39.86 143.54 39.86 138.27L39.86 138.27L39.86 138.27Q39.86 134.22 40.77 131.71L40.77 131.71L40.77 131.71Q41.68 129.21 43.57 127.96L43.57 127.96L43.57 127.96Q45.47 126.71 48.37 126.27L48.37 126.27L48.37 126.27Q51.28 125.83 55.34 125.83ZM81.84 130.63L88.39 130.63L88.39 163.89L88.39 163.89Q88.39 166.19 89.37 167.17L89.37 167.17L89.37 167.17Q90.35 168.15 92.72 168.15L92.72 168.15L97.59 168.15L98.33 172.95L98.33 172.95Q97.18 173.29 95.73 173.49L95.73 173.49L95.73 173.49Q94.27 173.69 92.82 173.80L92.82 173.80L92.82 173.80Q91.37 173.90 90.49 173.90L90.49 173.90L90.49 173.90Q86.30 173.90 84.07 171.60L84.07 171.60L84.07 171.60Q81.84 169.30 81.84 164.97L81.84 164.97L81.84 130.63ZM82.38 140.30L98.67 140.30L98.67 145.17L75.89 145.17L75.89 140.64L82.38 140.30ZM121.25 139.49L121.25 139.49L121.25 139.49Q125.03 139.49 127.64 140.47L127.64 140.47L127.64 140.47Q130.24 141.45 131.56 143.81L131.56 143.81L131.56 143.81Q132.87 146.18 132.87 150.30L132.87 150.30L132.87 173.29L127.74 173.29L126.72 166.12L126.32 165.31L126.32 150.30L126.32 150.30Q126.32 147.40 124.97 146.11L124.97 146.11L124.97 146.11Q123.61 144.83 119.83 144.83L119.83 144.83L119.83 144.83Q117.26 144.83 113.37 145.10L113.37 145.10L113.37 145.10Q109.48 145.37 105.70 145.64L105.70 145.64L105.09 140.98L105.09 140.98Q107.39 140.57 110.19 140.23L110.19 140.23L110.19 140.23Q113 139.89 115.91 139.69L115.91 139.69L115.91 139.69Q118.81 139.49 121.25 139.49ZM112.86 152.94L129.90 152.94L129.83 157.54L114.28 157.61L114.28 157.61Q111.99 157.67 111.07 158.79L111.07 158.79L111.07 158.79Q110.16 159.90 110.16 161.86L110.16 161.86L110.16 163.89L110.16 163.89Q110.16 166.33 111.34 167.44L111.34 167.44L111.34 167.44Q112.53 168.56 115.10 168.56L115.10 168.56L115.10 168.56Q116.99 168.56 119.32 167.85L119.32 167.85L119.32 167.85Q121.65 167.14 124.02 165.68L124.02 165.68L124.02 165.68Q126.38 164.23 128.28 162.00L128.28 162.00L128.28 166.26L128.28 166.26Q127.60 167.20 126.25 168.52L126.25 168.52L126.25 168.52Q124.90 169.84 122.97 171.06L122.97 171.06L122.97 171.06Q121.04 172.27 118.71 173.09L118.71 173.09L118.71 173.09Q116.38 173.90 113.61 173.90L113.61 173.90L113.61 173.90Q110.63 173.90 108.37 172.85L108.37 172.85L108.37 172.85Q106.10 171.80 104.82 169.74L104.82 169.74L104.82 169.74Q103.54 167.68 103.54 164.70L103.54 164.70L103.54 161.12L103.54 161.12Q103.54 157.27 106.00 155.10L106.00 155.10L106.00 155.10Q108.47 152.94 112.86 152.94L112.86 152.94ZM145.31 130.63L151.87 130.63L151.87 163.89L151.87 163.89Q151.87 166.19 152.85 167.17L152.85 167.17L152.85 167.17Q153.83 168.15 156.20 168.15L156.20 168.15L161.06 168.15L161.81 172.95L161.81 172.95Q160.66 173.29 159.20 173.49L159.20 173.49L159.20 173.49Q157.75 173.69 156.30 173.80L156.30 173.80L156.30 173.80Q154.84 173.90 153.97 173.90L153.97 173.90L153.97 173.90Q149.77 173.90 147.54 171.60L147.54 171.60L147.54 171.60Q145.31 169.30 145.31 164.97L145.31 164.97L145.31 130.63ZM145.85 140.30L162.15 140.30L162.15 145.17L139.36 145.17L139.36 140.64L145.85 140.30ZM169.11 140.30L175.53 140.30L175.53 173.29L169.11 173.29L169.11 140.30ZM170.80 126.17L173.84 126.17L173.84 126.17Q175.80 126.17 175.80 128.13L175.80 128.13L175.80 131.98L175.80 131.98Q175.80 133.95 173.84 133.95L173.84 133.95L170.80 133.95L170.80 133.95Q168.84 133.95 168.84 131.98L168.84 131.98L168.84 128.13L168.84 128.13Q168.84 126.17 170.80 126.17L170.80 126.17ZM200.27 139.49L200.27 139.49L200.27 139.49Q201.83 139.49 203.69 139.62L203.69 139.62L203.69 139.62Q205.54 139.76 207.54 140.10L207.54 140.10L207.54 140.10Q209.53 140.43 211.22 141.11L211.22 141.11L210.41 145.30L210.41 145.30Q208.05 145.10 205.58 145.00L205.58 145.00L205.58 145.00Q203.11 144.90 201.35 144.90L201.35 144.90L201.35 144.90Q197.57 144.90 195.37 145.94L195.37 145.94L195.37 145.94Q193.17 146.99 192.23 149.56L192.23 149.56L192.23 149.56Q191.28 152.13 191.28 156.73L191.28 156.73L191.28 156.73Q191.28 161.32 192.23 163.96L192.23 163.96L192.23 163.96Q193.17 166.60 195.37 167.61L195.37 167.61L195.37 167.61Q197.57 168.62 201.35 168.62L201.35 168.62L201.35 168.62Q202.37 168.62 203.99 168.56L203.99 168.56L203.99 168.56Q205.61 168.49 207.50 168.35L207.50 168.35L207.50 168.35Q209.40 168.22 211.16 167.95L211.16 167.95L211.76 172.27L211.76 172.27Q209.26 173.22 206.22 173.66L206.22 173.66L206.22 173.66Q203.18 174.10 200.20 174.10L200.20 174.10L200.20 174.10Q194.39 174.10 190.91 172.41L190.91 172.41L190.91 172.41Q187.43 170.72 185.87 166.93L185.87 166.93L185.87 166.93Q184.32 163.15 184.32 156.73L184.32 156.73L184.32 156.73Q184.32 150.37 185.91 146.59L185.91 146.59L185.91 146.59Q187.50 142.80 190.98 141.14L190.98 141.14L190.98 141.14Q194.46 139.49 200.27 139.49Z" fill="#FFFFFF"/><path d="M227.92 126.58L227.92 126.58L227.92 126.58Q231.23 126.58 234.61 126.61L234.61 126.61L234.61 126.61Q237.99 126.64 241.30 126.71L241.30 126.71L241.30 126.71Q244.61 126.78 247.59 127.05L247.59 127.05L247.25 132.19L229.88 132.19L229.88 132.19Q227.58 132.19 226.53 133.20L226.53 133.20L226.53 133.20Q225.48 134.22 225.48 136.45L225.48 136.45L225.48 173.29L218.72 173.29L218.72 135.16L218.72 135.16Q218.72 131.11 221.23 128.84L221.23 128.84L221.23 128.84Q223.73 126.58 227.92 126.58ZM219.87 152.06L219.87 146.79L244.68 146.79L244.68 152.06L219.87 152.06ZM268.07 139.49L268.07 139.49L268.07 139.49Q273.89 139.49 277.37 141.18L277.37 141.18L277.37 141.18Q280.85 142.87 282.37 146.69L282.37 146.69L282.37 146.69Q283.89 150.51 283.89 156.79L283.89 156.79L283.89 156.79Q283.89 163.15 282.37 166.97L282.37 166.97L282.37 166.97Q280.85 170.79 277.37 172.48L277.37 172.48L277.37 172.48Q273.89 174.17 268.07 174.17L268.07 174.17L268.07 174.17Q262.33 174.17 258.84 172.48L258.84 172.48L258.84 172.48Q255.36 170.79 253.81 166.97L253.81 166.97L253.81 166.97Q252.25 163.15 252.25 156.79L252.25 156.79L252.25 156.79Q252.25 150.51 253.81 146.69L253.81 146.69L253.81 146.69Q255.36 142.87 258.84 141.18L258.84 141.18L258.84 141.18Q262.33 139.49 268.07 139.49ZM268.07 144.76L268.07 144.76L268.07 144.76Q264.69 144.76 262.73 145.84L262.73 145.84L262.73 145.84Q260.77 146.92 259.96 149.53L259.96 149.53L259.96 149.53Q259.15 152.13 259.15 156.79L259.15 156.79L259.15 156.79Q259.15 161.46 259.96 164.09L259.96 164.09L259.96 164.09Q260.77 166.73 262.73 167.78L262.73 167.78L262.73 167.78Q264.69 168.83 268.07 168.83L268.07 168.83L268.07 168.83Q271.45 168.83 273.45 167.78L273.45 167.78L273.45 167.78Q275.44 166.73 276.25 164.09L276.25 164.09L276.25 164.09Q277.06 161.46 277.06 156.79L277.06 156.79L277.06 156.79Q277.06 152.13 276.25 149.53L276.25 149.53L276.25 149.53Q275.44 146.92 273.45 145.84L273.45 145.84L273.45 145.84Q271.45 144.76 268.07 144.76ZM292.48 140.30L297.55 140.30L298.36 146.65L298.97 147.60L298.97 173.29L292.48 173.29L292.48 140.30ZM312.21 139.49L313.70 139.49L313.03 145.57L310.93 145.57L310.93 145.57Q308.16 145.57 305.29 146.65L305.29 146.65L305.29 146.65Q302.41 147.74 298.29 149.76L298.29 149.76L297.82 145.78L297.82 145.78Q301.40 142.80 305.08 141.14L305.08 141.14L305.08 141.14Q308.77 139.49 312.21 139.49L312.21 139.49ZM360.41 139.49L360.41 139.49L360.41 139.49Q364.74 139.49 367.00 141.79L367.00 141.79L367.00 141.79Q369.27 144.09 369.27 148.55L369.27 148.55L369.27 173.29L362.78 173.29L362.78 150.44L362.78 150.44Q362.78 147.60 361.66 146.28L361.66 146.28L361.66 146.28Q360.55 144.96 357.91 144.96L357.91 144.96L357.91 144.96Q356.29 144.96 354.80 145.50L354.80 145.50L354.80 145.50Q353.32 146.05 351.49 147.16L351.49 147.16L351.49 147.16Q349.67 148.28 347.10 150.17L347.10 150.17L346.76 145.78L346.76 145.78Q350.27 142.60 353.59 141.04L353.59 141.04L353.59 141.04Q356.90 139.49 360.41 139.49ZM319.92 140.30L325.26 140.30L325.73 146.65L326.41 147.60L326.41 173.29L319.92 173.29L319.92 140.30ZM338.98 139.49L338.98 139.49L338.98 139.49Q343.24 139.49 345.47 141.75L345.47 141.75L345.47 141.75Q347.70 144.02 347.77 148.55L347.77 148.55L347.77 173.29L341.49 173.29L341.49 150.44L341.49 150.44Q341.49 147.47 340.27 146.21L340.27 146.21L340.27 146.21Q339.05 144.96 336.62 144.96L336.62 144.96L336.62 144.96Q335.00 144.96 333.51 145.47L333.51 145.47L333.51 145.47Q332.02 145.98 330.16 147.09L330.16 147.09L330.16 147.09Q328.30 148.21 325.67 150.17L325.67 150.17L325.26 145.78L325.26 145.78Q328.78 142.60 332.09 141.04L332.09 141.04L332.09 141.04Q335.40 139.49 338.98 139.49Z" fill="#FFFFFF"/></svg>