<svg width="169" height="49" viewBox="0 0 169 49" fill="none" xmlns="http://www.w3.org/2000/svg">
<rect x="0.5" y="0.5" width="168" height="48" rx="9.5" fill="black" fill-opacity="0.8" stroke="black"/>
<path d="M20.7285 34.168C19.4965 34.168 18.3925 33.968 17.4165 33.568C16.4405 33.168 15.6565 32.576 15.0645 31.792C14.4885 31.008 14.1845 30.064 14.1525 28.96H18.5205C18.5845 29.584 18.8005 30.064 19.1685 30.4C19.5365 30.72 20.0165 30.88 20.6085 30.88C21.2165 30.88 21.6965 30.744 22.0485 30.472C22.4005 30.184 22.5765 29.792 22.5765 29.296C22.5765 28.88 22.4325 28.536 22.1445 28.264C21.8725 27.992 21.5285 27.768 21.1125 27.592C20.7125 27.416 20.1365 27.216 19.3845 26.992C18.2965 26.656 17.4085 26.32 16.7205 25.984C16.0325 25.648 15.4405 25.152 14.9445 24.496C14.4485 23.84 14.2005 22.984 14.2005 21.928C14.2005 20.36 14.7685 19.136 15.9045 18.256C17.0405 17.36 18.5205 16.912 20.3445 16.912C22.2005 16.912 23.6965 17.36 24.8325 18.256C25.9685 19.136 26.5765 20.368 26.6565 21.952H22.2165C22.1845 21.408 21.9845 20.984 21.6165 20.68C21.2485 20.36 20.7765 20.2 20.2005 20.2C19.7045 20.2 19.3045 20.336 19.0005 20.608C18.6965 20.864 18.5445 21.24 18.5445 21.736C18.5445 22.28 18.8005 22.704 19.3125 23.008C19.8245 23.312 20.6245 23.64 21.7125 23.992C22.8005 24.36 23.6805 24.712 24.3525 25.048C25.0405 25.384 25.6325 25.872 26.1285 26.512C26.6245 27.152 26.8725 27.976 26.8725 28.984C26.8725 29.944 26.6245 30.816 26.1285 31.6C25.6485 32.384 24.9445 33.008 24.0165 33.472C23.0885 33.936 21.9925 34.168 20.7285 34.168Z" fill="white"/>
<path d="M36.8622 30.52V34H34.7742C33.2862 34 32.1262 33.64 31.2942 32.92C30.4622 32.184 30.0462 30.992 30.0462 29.344V24.016H28.4142V20.608H30.0462V17.344H34.1502V20.608H36.8382V24.016H34.1502V29.392C34.1502 29.792 34.2462 30.08 34.4382 30.256C34.6302 30.432 34.9502 30.52 35.3982 30.52H36.8622Z" fill="white"/>
<path d="M38.3322 27.28C38.3322 25.904 38.5882 24.696 39.1002 23.656C39.6282 22.616 40.3402 21.816 41.2362 21.256C42.1322 20.696 43.1322 20.416 44.2362 20.416C45.1802 20.416 46.0042 20.608 46.7082 20.992C47.4282 21.376 47.9802 21.88 48.3642 22.504V20.608H52.4682V34H48.3642V32.104C47.9642 32.728 47.4042 33.232 46.6842 33.616C45.9802 34 45.1562 34.192 44.2122 34.192C43.1242 34.192 42.1322 33.912 41.2362 33.352C40.3402 32.776 39.6282 31.968 39.1002 30.928C38.5882 29.872 38.3322 28.656 38.3322 27.28ZM48.3642 27.304C48.3642 26.28 48.0762 25.472 47.5002 24.88C46.9402 24.288 46.2522 23.992 45.4362 23.992C44.6202 23.992 43.9242 24.288 43.3482 24.88C42.7882 25.456 42.5082 26.256 42.5082 27.28C42.5082 28.304 42.7882 29.12 43.3482 29.728C43.9242 30.32 44.6202 30.616 45.4362 30.616C46.2522 30.616 46.9402 30.32 47.5002 29.728C48.0762 29.136 48.3642 28.328 48.3642 27.304Z" fill="white"/>
<path d="M62.9012 30.52V34H60.8132C59.3252 34 58.1652 33.64 57.3332 32.92C56.5012 32.184 56.0852 30.992 56.0852 29.344V24.016H54.4532V20.608H56.0852V17.344H60.1892V20.608H62.8772V24.016H60.1892V29.392C60.1892 29.792 60.2852 30.08 60.4772 30.256C60.6692 30.432 60.9892 30.52 61.4372 30.52H62.9012Z" fill="white"/>
<path d="M67.2512 19.216C66.5312 19.216 65.9392 19.008 65.4752 18.592C65.0272 18.16 64.8032 17.632 64.8032 17.008C64.8032 16.368 65.0272 15.84 65.4752 15.424C65.9392 14.992 66.5312 14.776 67.2512 14.776C67.9552 14.776 68.5312 14.992 68.9792 15.424C69.4432 15.84 69.6752 16.368 69.6752 17.008C69.6752 17.632 69.4432 18.16 68.9792 18.592C68.5312 19.008 67.9552 19.216 67.2512 19.216ZM69.2912 20.608V34H65.1872V20.608H69.2912Z" fill="white"/>
<path d="M71.4493 27.304C71.4493 25.912 71.7293 24.696 72.2893 23.656C72.8653 22.616 73.6573 21.816 74.6653 21.256C75.6893 20.696 76.8573 20.416 78.1693 20.416C79.8493 20.416 81.2493 20.856 82.3693 21.736C83.5053 22.616 84.2493 23.856 84.6013 25.456H80.2333C79.8653 24.432 79.1533 23.92 78.0973 23.92C77.3453 23.92 76.7453 24.216 76.2973 24.808C75.8493 25.384 75.6253 26.216 75.6253 27.304C75.6253 28.392 75.8493 29.232 76.2973 29.824C76.7453 30.4 77.3453 30.688 78.0973 30.688C79.1533 30.688 79.8653 30.176 80.2333 29.152H84.6013C84.2493 30.72 83.5053 31.952 82.3693 32.848C81.2333 33.744 79.8333 34.192 78.1693 34.192C76.8573 34.192 75.6893 33.912 74.6653 33.352C73.6573 32.792 72.8653 31.992 72.2893 30.952C71.7293 29.912 71.4493 28.696 71.4493 27.304Z" fill="white"/>
<path d="M102.851 17.152V20.44H95.9865V23.992H101.123V27.184H95.9865V34H91.8825V17.152H102.851Z" fill="white"/>
<path d="M111.104 34.192C109.792 34.192 108.608 33.912 107.552 33.352C106.512 32.792 105.688 31.992 105.08 30.952C104.488 29.912 104.192 28.696 104.192 27.304C104.192 25.928 104.496 24.72 105.104 23.68C105.712 22.624 106.544 21.816 107.6 21.256C108.656 20.696 109.84 20.416 111.152 20.416C112.464 20.416 113.648 20.696 114.704 21.256C115.76 21.816 116.592 22.624 117.2 23.68C117.808 24.72 118.112 25.928 118.112 27.304C118.112 28.68 117.8 29.896 117.176 30.952C116.568 31.992 115.728 32.792 114.656 33.352C113.6 33.912 112.416 34.192 111.104 34.192ZM111.104 30.64C111.888 30.64 112.552 30.352 113.096 29.776C113.656 29.2 113.936 28.376 113.936 27.304C113.936 26.232 113.664 25.408 113.12 24.832C112.592 24.256 111.936 23.968 111.152 23.968C110.352 23.968 109.688 24.256 109.16 24.832C108.632 25.392 108.368 26.216 108.368 27.304C108.368 28.376 108.624 29.2 109.136 29.776C109.664 30.352 110.32 30.64 111.104 30.64Z" fill="white"/>
<path d="M124.393 22.84C124.873 22.104 125.473 21.528 126.193 21.112C126.913 20.68 127.713 20.464 128.593 20.464V24.808H127.465C126.441 24.808 125.673 25.032 125.161 25.48C124.649 25.912 124.393 26.68 124.393 27.784V34H120.289V20.608H124.393V22.84Z" fill="white"/>
<path d="M147.642 20.464C149.306 20.464 150.626 20.968 151.602 21.976C152.594 22.984 153.09 24.384 153.09 26.176V34H149.01V26.728C149.01 25.864 148.778 25.2 148.314 24.736C147.866 24.256 147.242 24.016 146.442 24.016C145.642 24.016 145.01 24.256 144.546 24.736C144.098 25.2 143.874 25.864 143.874 26.728V34H139.794V26.728C139.794 25.864 139.562 25.2 139.098 24.736C138.65 24.256 138.026 24.016 137.226 24.016C136.426 24.016 135.794 24.256 135.33 24.736C134.882 25.2 134.658 25.864 134.658 26.728V34H130.554V20.608H134.658V22.288C135.074 21.728 135.618 21.288 136.29 20.968C136.962 20.632 137.722 20.464 138.57 20.464C139.578 20.464 140.474 20.68 141.258 21.112C142.058 21.544 142.682 22.16 143.13 22.96C143.594 22.224 144.226 21.624 145.026 21.16C145.826 20.696 146.698 20.464 147.642 20.464Z" fill="white"/>
</svg>
